<?xml version="1.0" encoding="UTF-8"?>
<svg width="37px" height="37px" viewBox="0 0 37 37" version="1.1" xmlns="http://www.w3.org/2000/svg" xmlns:xlink="http://www.w3.org/1999/xlink">
    <!-- Generator: Sketch 63.1 (92452) - https://sketch.com -->
    <title>beter bomb</title>
    <desc>Created with Sketch.</desc>
    <g id="Page-1" stroke="none" stroke-width="1" fill="none" fill-rule="evenodd">
        <g id="beter-bomb" transform="translate(2.000000, 2.000000)">
            <circle id="Oval" stroke="#000000" fill="#000000" cx="16.5" cy="16.5" r="12.5"></circle>
            <line x1="33" y1="16" x2="29" y2="16" id="Line" stroke="#000000" stroke-width="3" fill="#000000" stroke-linecap="square"></line>
            <line x1="5.5" y1="21.5" x2="9.5" y2="27.5" id="Line-Copy-2" stroke="#000000" stroke-width="3" fill="#000000" stroke-linecap="square" transform="translate(7.500000, 24.500000) rotate(-90.000000) translate(-7.500000, -24.500000) "></line>
            <line x1="23.5" y1="6.5" x2="27" y2="11" id="Line-Copy-2" stroke="#000000" stroke-width="3" fill="#000000" stroke-linecap="square" transform="translate(25.000000, 8.500000) rotate(-90.000000) translate(-25.000000, -8.500000) "></line>
            <line x1="23" y1="22" x2="27.9497475" y2="26.9497475" id="Line-Copy-2" stroke="#000000" stroke-width="3" fill="#000000" stroke-linecap="square" transform="translate(25.474874, 24.474874) rotate(-0.000000) translate(-25.474874, -24.474874) "></line>
            <line x1="5" y1="6" x2="9.94974747" y2="10.9497475" id="Line-Copy-2" stroke="#000000" stroke-width="3" fill="#000000" stroke-linecap="square" transform="translate(7.474874, 8.474874) rotate(-0.000000) translate(-7.474874, -8.474874) "></line>
            <line x1="18" y1="31" x2="14" y2="31" id="Line" stroke="#000000" stroke-width="3" fill="#000000" stroke-linecap="square" transform="translate(16.000000, 31.000000) rotate(-90.000000) translate(-16.000000, -31.000000) "></line>
            <line x1="18" y1="2" x2="14" y2="2" id="Line-Copy" stroke="#000000" stroke-width="3" fill="#000000" stroke-linecap="square" transform="translate(16.000000, 2.000000) rotate(-90.000000) translate(-16.000000, -2.000000) "></line>
            <line x1="4" y1="16" x2="1.42108547e-14" y2="16" id="Line" stroke="#000000" stroke-width="3" fill="#000000" stroke-linecap="square"></line>
            <rect id="Rectangle" stroke="#FFFFFF" fill="#FFFFFF" x="10" y="8" width="6" height="6"></rect>
        </g>
    </g>
</svg>